<?xml version="1.0"?>
<svg xmlns:rdf="http://www.w3.org/1999/02/22-rdf-syntax-ns#" xmlns="http://www.w3.org/2000/svg" xmlns:cc="http://creativecommons.org/ns#" xmlns:dc="http://purl.org/dc/elements/1.1/" xmlns:svg="http://www.w3.org/2000/svg" id="svg4868" viewBox="0 0 405.11 454.75" version="1.1">
  <g id="layer1" transform="translate(-24.128 -236.43)">
    <g id="g5912" fill="#ffffff" transform="matrix(.86603 -.5 .5 .86603 -211.43 168.85)">
      <path id="path11394" d="m154.75 6c-22.245 0-42.23 9.7312-60 29.344 4.345 2.9 5.115 5.8062 2.2188 8.9688-1.7112 2.1125-4.3212 1.3-7.875-2.125-5.529 6.837-10.662 14.75-15.532 23.437-11.32 20.012-19.62 41.988-25.281 65.812-14.742 1.325-26.589 14.5-35.406 39.5-4.1455 11.888-6.4135 23.922-6.8125 36.094l22.563-0.71c0.349-6.0978 1.0195-12.228 2-18.406 2.5-16.712 6.8575-26.831 12.781-30.656-0.65875 4.6125-1.3238 9.4688-1.7188 14.344 5.2662 0.525 8.1675 2.8812 8.5625 7.2188 0.6575 5.4-2.6438 8.5688-9.75 9.2188-0.32668 5.8638-0.55288 11.828-0.625 17.938l21.188-0.6875c0.18266-17.524 1.6076-34.04 4.0625-49.625 2.5012-14.738 5.9312-28.556 10.406-41.719 3.95-11.325 8.6662-22.112 14.062-32.25 18.958-35.015 41.988-52.534 68.848-52.534 26.854 0 49.765 17.519 68.719 52.531 17.673 32.889 27.196 71.95 28.406 117.41l14.094-0.4375c-0.8937-32.682-5.7211-62.514-14.469-89.469-2.8962 0.125-4.86-0.925-5.7812-3.5625-1.0525-2.5-0.51375-5.2375 1.5938-8.125-4.2125-11.2-9.2138-21.738-14.875-31.875-12.899-22.638-26.986-38.812-42.781-48.562-3.6875 4.35-6.5975 5.65-8.9688 3.8125-2.5-1.85-2.8912-4.8625-1.3125-8.9375-8.95-3.9425-18.44-5.93-28.31-5.93zm5.1562 29.625c-25.01 0-46.48 16.831-64.25 50.656-5.1325 9.75-9.6025 20.156-13.156 31.219-4.2125 12.5-7.5138 25.912-9.75 40.125-0.52625 3.425-1.0438 6.8438-1.4375 10.531l0.90625 0.15625c1.8425-5.2625 4.0812-10.419 6.8438-15.156 9.3475-16.588 20.68-25 33.844-25 13.292 0 24.5 8.4125 33.844 25 7.728 13.911 12.289 30.242 13.562 48.969l90.406-2.875c-1.14-43.71-9.91-81.37-26.45-112.98-17.64-33.824-39.23-50.655-64.37-50.655zm-66.472 143.06c-4.6062 0-8.56 3.575-11.719 10.688-2.1062 4.6-3.4362 9.725-4.0938 15.25v0.125l18.969-0.59375c0.17679-5.2371 0.66915-10.028 1.4375-14.406 1.3175-6.975 0.12875-10.675-3.6875-11.062h-0.90625zm-87.438 33c0.097131 15.311 3.1335 30.852 9.0938 46.656 6.8462 17.9 18.58 30.931 35.562 39.094 3.9475 14.475 8.8125 28.162 15 41.062 5.265-3.95 8.6825-4.4625 10-1.3125 1.3162 2.9-0.5425 6.8375-5.2812 11.312 1.0538 1.8375 2.1338 3.6938 3.1875 5.4062 21.456 38.038 47.12 57.912 77 59.5 1.0525-5.5375 2.215-8.3125 3.5312-8.3125 3.1612-0.6625 4.495 2.375 3.9688 8.5625 28.564-1.325 53.289-19.088 74.219-53.312-1.7112-1.975-2.49-3.5688-2.0938-5.2812 1.3162-2.1 3.17-2.1 5.4062 0 0-0.3875 0.2675-0.76875 0.53125-1.1562 17.901-31.6 28.69-68.606 32.375-110.72-2.6325-1.7125-3.9688-3.8125-3.9688-6.3125 0-3.025 1.5912-4.7375 4.75-5 0.20416-3.6761 0.32342-7.4197 0.40625-11.219l-14.156-0.5c-1.3352 44.87-10.846 83.474-28.375 115.97-18.954 35.15-41.865 52.656-68.719 52.656-26.86-0.01-49.89-17.51-68.846-52.67-4.079-7.37-7.496-14.99-10.656-23.03-0.132-0.26-0.244-0.64-0.376-0.9l-3.031-8.19c-9.325-26.84-14.08-56.96-14.469-90.44l-21.187-0.72c0.12956 18.401 1.4414 35.983 4.0625 52.469 0.1325 1.3125 0.4 2.625 0.53125 3.8125-7.8975-5.7875-12.9-16.588-14.875-32.375-0.9919-8.0094-1.401-16.125-1.2188-24.312l-22.375-0.75zm71.062 2.4062-0.09375 1.4688 0.65625 10.781c0.6575 5.6625 1.9875 10.681 4.0938 15.156 3.1588 7.2375 7.1125 10.906 11.719 10.906 0.26375 0 0.51125 0.0125 0.90625-0.125 3.8162-0.3875 5.3925-3.8188 4.4688-10.406-0.92-7.1-1.5662-15.675-2.0938-25.812-0.02328-0.4468-0.04329-0.87128-0.0625-1.3125l-19.594-0.67zm83.562 2.8438c-0.47827 21.94-5.1537 40.707-13.875 56.406-9.3438 16.588-20.551 24.875-33.844 24.875-13.164 0-24.496-8.2875-33.844-24.875-1.9738-3.55-3.675-7.125-5.125-10.938l-0.375 0.15625c2.7638 15.525 6.5838 30.8 11.719 45.938 0.13 0.3875 0.245 0.63125 0.375 1.0312 2.8975 7.6375 6.1825 15.025 10 22.125 17.77 33.825 39.24 50.812 64.25 50.812 25.141 0 46.736-16.988 64.375-50.812 16.41-31.24 25.16-68.44 26.41-111.67l-90.062-3.0625z" transform="translate(14.381 269.14)"/>
      <path id="path5849" d="m319.84 8.7812-5.06 19.469c6.1674 7.7257 12.021 16.636 17.344 26.594 19.396 36.284 32.208 86.158 34.031 141.66l17.75-0.5c-1.87-57.15-14.92-108.67-35.6-147.34-8.28-15.504-17.79-28.957-28.47-39.879zm-7.4375 27.906-5.8438 22.344c18.904 35.364 31.367 84.094 33.031 138.25l17.219-0.5c-1.7-55.75-14.38-106.03-34.53-143.72-3.0955-5.7908-6.4333-11.203-9.875-16.375zm-9.25 34.5-7.0938 27.062c9.8163 29.012 16.018 63.092 17.031 99.781l16.688-0.46875c-1.3042-47.821-10.993-91.514-26.625-126.38zm-11.938 43.406-9.0625 34.688c2.51 15.782 4.0804 32.368 4.4375 49.531l16.125-0.46875c-0.62675-29.974-4.719-58.24-11.5-83.75zm-4.8125 105.22c-0.71405 19.069-2.9235 37.351-6.25 54.562l9.3125 30.594c7.4199-25.544 12.014-54.219 13.094-84.656l-16.156-0.5zm26.625 0.84375c-1.1804 38.153-7.9025 73.508-18.531 103.12l7.5312 24.625c16.114-34.894 26.194-78.896 27.688-127.25l-16.688-0.5zm26.594 0.8125c-1.5948 54.377-14.093 103.29-33.062 138.78-0.26528 0.49627-0.54469 0.91527-0.8125 1.4062l6.4688 21.219c3.5106-5.2581 6.9108-10.76 10.062-16.656 20.22-37.8 32.94-88.25 34.57-144.21l-17.22-0.53zm26.562 0.84375c-1.6244 56.15-14.477 106.64-34.062 143.28-5.3065 9.927-11.135 18.814-17.281 26.531l5.6875 18.656c10.383-10.786 19.683-23.851 27.781-39 20.868-39.038 33.982-91.151 35.656-148.94l-17.77-0.52z" style="block-progression:tb;color:#000000;text-transform:none;text-indent:0" transform="translate(14.381 269.14)"/>
    </g>
  </g>
  <metadata>
    <rdf:RDF>
      <cc:Work>
        <dc:format>image/svg+xml</dc:format>
        <dc:type rdf:resource="http://purl.org/dc/dcmitype/StillImage"/>
        <cc:license rdf:resource="http://creativecommons.org/licenses/publicdomain/"/>
        <dc:publisher>
          <cc:Agent rdf:about="http://openclipart.org/">
            <dc:title>Openclipart</dc:title>
          </cc:Agent>
        </dc:publisher>
        <dc:title>loudspeaker</dc:title>
        <dc:date>2011-02-14T22:01:30</dc:date>
        <dc:description>Lautsprecher is a loudspeaker.</dc:description>
        <dc:source>http://openclipart.org/detail/118345/loudspeaker-by-forestgreen</dc:source>
        <dc:creator>
          <cc:Agent>
            <dc:title>forestgreen</dc:title>
          </cc:Agent>
        </dc:creator>
        <dc:subject>
          <rdf:Bag>
            <rdf:li>clip art</rdf:li>
            <rdf:li>clipart</rdf:li>
            <rdf:li>loudspeaker</rdf:li>
            <rdf:li>music</rdf:li>
            <rdf:li>noise</rdf:li>
            <rdf:li>phono</rdf:li>
            <rdf:li>speaker</rdf:li>
          </rdf:Bag>
        </dc:subject>
      </cc:Work>
      <cc:License rdf:about="http://creativecommons.org/licenses/publicdomain/">
        <cc:permits rdf:resource="http://creativecommons.org/ns#Reproduction"/>
        <cc:permits rdf:resource="http://creativecommons.org/ns#Distribution"/>
        <cc:permits rdf:resource="http://creativecommons.org/ns#DerivativeWorks"/>
      </cc:License>
    </rdf:RDF>
  </metadata>
</svg>
